<?xml version="1.0" standalone="no"?><!DOCTYPE svg PUBLIC "-//W3C//DTD SVG 1.1//EN" "http://www.w3.org/Graphics/SVG/1.1/DTD/svg11.dtd"><svg t="1572146722532" class="icon" viewBox="0 0 1024 1024" version="1.1" xmlns="http://www.w3.org/2000/svg" p-id="845" width="64" height="64" xmlns:xlink="http://www.w3.org/1999/xlink"><defs><style type="text/css"></style></defs><path d="M704.137 448.209c72.559 0 128.024-52.485 128.024-125.044 0-72.565-58.822-131.381-131.381-131.381-72.565 0-124.668 55.647-124.668 128.212 0 72.559 55.46 128.213 128.025 128.213z m0-192.256c34.561 0 64.363 29.245 64.363 64.044 0 33.254-30 63.794-64.363 63.794-35.314 0-64.012-30.29-64.012-63.794-0.001-35.299 30.406-64.044 64.012-64.044zM541.944 636.359L256.05 319.996l-128.025 98.879v93.253l128.025-95.262 192.037 223.099 93.857-3.606z m53.223 75.085" p-id="846"></path><path d="M927.996 895.639L576.112 512.127 128.025 895.639h97.35l350.737-287.264 290.622 319.844 61.262-32.58zM63.333 63.333h897.021v64.657H63.333zM63.333 127.99h64.692v832.233H63.333z" p-id="847"></path><path d="M128.025 895.639h769.101v64.088H128.025z" p-id="848"></path><path d="M896.01 127.99h64.345v831.568H896.01z" p-id="849"></path></svg>